<svg xmlns="http://www.w3.org/2000/svg" width="149.612" height="17.88" viewBox="0 0 149.612 17.88"><path d="M1.28,18a.585.585,0,0,1-.432-.168A.639.639,0,0,1,.68,17.4V1.8a.575.575,0,0,1,.6-.6H8.6a8.52,8.52,0,0,1,3.384.576,4,4,0,0,1,1.944,1.656,4.724,4.724,0,0,1,.648,2.52,3.389,3.389,0,0,1-.336,1.536,3.438,3.438,0,0,1-.792,1.08,3.409,3.409,0,0,1-.864.624,4.181,4.181,0,0,1,1.608,1.416,3.8,3.8,0,0,1,.72,2.3,5.056,5.056,0,0,1-.72,2.736A4.571,4.571,0,0,1,12.128,17.4a8.117,8.117,0,0,1-3.312.6ZM5,14.88H8.336a1.968,1.968,0,0,0,1.56-.6,2.013,2.013,0,0,0,.528-1.368A1.937,1.937,0,0,0,8.336,10.92H5ZM5,7.872H8.12a1.934,1.934,0,0,0,1.464-.5,1.806,1.806,0,0,0,.5-1.3,1.645,1.645,0,0,0-.5-1.248,1.934,1.934,0,0,0-1.464-.5H5ZM17.781,18a.585.585,0,0,1-.432-.168.639.639,0,0,1-.168-.432V6.12a.555.555,0,0,1,.168-.408.548.548,0,0,1,.432-.192h2.76a.548.548,0,0,1,.432.192.523.523,0,0,1,.192.408v.96a4.282,4.282,0,0,1,1.512-1.152,4.942,4.942,0,0,1,2.04-.408h1.056a.575.575,0,0,1,.6.6V8.592a.639.639,0,0,1-.168.432.585.585,0,0,1-.432.168H23.445a2.076,2.076,0,0,0-1.536.552,2.046,2.046,0,0,0-.528,1.512V17.4a.6.6,0,0,1-.192.432.585.585,0,0,1-.432.168Zm13.7.24a5.456,5.456,0,0,1-2.328-.48,4.29,4.29,0,0,1-1.608-1.344,3.183,3.183,0,0,1-.6-1.9,3.119,3.119,0,0,1,1.392-2.688,8.465,8.465,0,0,1,3.7-1.368l3-.456V9.672a2.092,2.092,0,0,0-.36-1.32,1.6,1.6,0,0,0-1.32-.456,2.089,2.089,0,0,0-1.1.264,1.883,1.883,0,0,0-.648.72.69.69,0,0,1-.6.312H28.311a.552.552,0,0,1-.408-.144.485.485,0,0,1-.12-.384A2.053,2.053,0,0,1,28.1,7.68,4.307,4.307,0,0,1,29.1,6.552a5.491,5.491,0,0,1,1.728-.912A8.014,8.014,0,0,1,33.4,5.28a8.561,8.561,0,0,1,2.64.36,4.766,4.766,0,0,1,1.8,1.008,3.784,3.784,0,0,1,1.008,1.536,5.258,5.258,0,0,1,.336,1.92v7.3a.6.6,0,0,1-.192.432.555.555,0,0,1-.408.168H35.8a.585.585,0,0,1-.432-.168A.639.639,0,0,1,35.2,17.4v-.84a3.484,3.484,0,0,1-.84.84,4.111,4.111,0,0,1-1.248.6A5.011,5.011,0,0,1,31.479,18.24ZM32.607,15.5a2.657,2.657,0,0,0,1.248-.288,2.1,2.1,0,0,0,.888-.936,3.468,3.468,0,0,0,.336-1.608v-.336l-2.04.36a3.786,3.786,0,0,0-1.656.6,1.124,1.124,0,0,0-.5.912,1.051,1.051,0,0,0,.24.7,1.664,1.664,0,0,0,.624.456A2.577,2.577,0,0,0,32.607,15.5ZM42.358,18a.585.585,0,0,1-.432-.168.639.639,0,0,1-.168-.432V6.12a.575.575,0,0,1,.6-.6H45.19a.575.575,0,0,1,.6.6V17.4a.639.639,0,0,1-.168.432A.585.585,0,0,1,45.19,18ZM42.334,3.72a.575.575,0,0,1-.6-.6V.96A.555.555,0,0,1,41.9.552.548.548,0,0,1,42.334.36h2.88a.523.523,0,0,1,.408.192.523.523,0,0,1,.192.408V3.12a.548.548,0,0,1-.192.432.555.555,0,0,1-.408.168ZM49.092,18a.585.585,0,0,1-.432-.168.639.639,0,0,1-.168-.432V6.12a.575.575,0,0,1,.6-.6h2.76a.585.585,0,0,1,.432.168.548.548,0,0,1,.192.432v.912a4.757,4.757,0,0,1,1.608-1.248,5.253,5.253,0,0,1,2.376-.5,4.721,4.721,0,0,1,2.448.624,4.228,4.228,0,0,1,1.68,1.824,6.4,6.4,0,0,1,.624,2.976v6.7a.639.639,0,0,1-.168.432.585.585,0,0,1-.432.168H57.588a.575.575,0,0,1-.6-.6V10.848a2.464,2.464,0,0,0-.552-1.728A1.959,1.959,0,0,0,54.852,8.5a2.1,2.1,0,0,0-1.584.624,2.4,2.4,0,0,0-.576,1.728V17.4a.6.6,0,0,1-.192.432.555.555,0,0,1-.408.168ZM67.05,18a.721.721,0,0,1-.528-.168,1.493,1.493,0,0,1-.264-.432L62.8,6.288a.642.642,0,0,1-.048-.24.455.455,0,0,1,.168-.36.529.529,0,0,1,.384-.168h2.472a.649.649,0,0,1,.48.168.735.735,0,0,1,.24.336l2.016,6.864,2.16-6.84a.8.8,0,0,1,.216-.336.714.714,0,0,1,.528-.192H73a.714.714,0,0,1,.528.192.575.575,0,0,1,.216.336l2.16,6.84,2.016-6.864a.8.8,0,0,1,.216-.336.738.738,0,0,1,.5-.168h2.472a.529.529,0,0,1,.384.168.455.455,0,0,1,.168.36.642.642,0,0,1-.048.24L78.162,17.4a1.021,1.021,0,0,1-.264.432A.721.721,0,0,1,77.37,18H75.21a.775.775,0,0,1-.528-.168,1.021,1.021,0,0,1-.264-.432L72.21,10.824,70,17.4a1.021,1.021,0,0,1-.264.432A.775.775,0,0,1,69.21,18Zm19.818.24a5.456,5.456,0,0,1-2.328-.48,4.29,4.29,0,0,1-1.608-1.344,3.183,3.183,0,0,1-.6-1.9,3.119,3.119,0,0,1,1.392-2.688,8.465,8.465,0,0,1,3.7-1.368l3-.456V9.672a2.092,2.092,0,0,0-.36-1.32A1.6,1.6,0,0,0,88.74,7.9a2.089,2.089,0,0,0-1.1.264,1.883,1.883,0,0,0-.648.72.69.69,0,0,1-.6.312H83.7a.552.552,0,0,1-.408-.144.485.485,0,0,1-.12-.384,2.053,2.053,0,0,1,.312-.984,4.307,4.307,0,0,1,1.008-1.128A5.491,5.491,0,0,1,86.22,5.64a8.014,8.014,0,0,1,2.568-.36,8.561,8.561,0,0,1,2.64.36,4.766,4.766,0,0,1,1.8,1.008,3.784,3.784,0,0,1,1.008,1.536,5.258,5.258,0,0,1,.336,1.92v7.3a.6.6,0,0,1-.192.432.555.555,0,0,1-.408.168H91.188a.585.585,0,0,1-.432-.168.639.639,0,0,1-.168-.432v-.84a3.484,3.484,0,0,1-.84.84A4.111,4.111,0,0,1,88.5,18,5.011,5.011,0,0,1,86.868,18.24ZM88,15.5a2.657,2.657,0,0,0,1.248-.288,2.1,2.1,0,0,0,.888-.936,3.468,3.468,0,0,0,.336-1.608v-.336l-2.04.36a3.786,3.786,0,0,0-1.656.6,1.124,1.124,0,0,0-.5.912,1.052,1.052,0,0,0,.24.7,1.664,1.664,0,0,0,.624.456A2.577,2.577,0,0,0,88,15.5ZM101.235,18a.721.721,0,0,1-.528-.168,2.033,2.033,0,0,1-.288-.432L95.883,6.264a.476.476,0,0,1-.048-.216.488.488,0,0,1,.144-.36.555.555,0,0,1,.408-.168H99.1a.649.649,0,0,1,.48.168.8.8,0,0,1,.216.336l2.712,7.368,2.736-7.368a.8.8,0,0,1,.216-.336.649.649,0,0,1,.48-.168h2.712a.529.529,0,0,1,.384.168.455.455,0,0,1,.168.36.476.476,0,0,1-.048.216L104.619,17.4a1.279,1.279,0,0,1-.288.432.76.76,0,0,1-.552.168Zm14.992.24a6.429,6.429,0,0,1-4.512-1.536,6.081,6.081,0,0,1-1.752-4.56V11.3a6.979,6.979,0,0,1,.84-3.24A5.16,5.16,0,0,1,112.963,6a6.957,6.957,0,0,1,3.24-.72,6.556,6.556,0,0,1,3.48.84,5.318,5.318,0,0,1,2.088,2.28,7.464,7.464,0,0,1,.7,3.288v.576a.575.575,0,0,1-.6.6h-7.68v.168a4,4,0,0,0,.24,1.272,2.2,2.2,0,0,0,.672.912,1.809,1.809,0,0,0,1.1.336,1.894,1.894,0,0,0,.792-.144,2.535,2.535,0,0,0,.552-.36q.216-.216.336-.36a1.08,1.08,0,0,1,.336-.312,1,1,0,0,1,.432-.072h2.976a.519.519,0,0,1,.384.144.42.42,0,0,1,.144.384,2.11,2.11,0,0,1-.408.984,5.055,5.055,0,0,1-1.128,1.152,6.073,6.073,0,0,1-1.824.912A8.293,8.293,0,0,1,116.227,18.24Zm-2.04-7.752h4.056V10.44A3.365,3.365,0,0,0,118,9.1a1.763,1.763,0,0,0-.7-.888,1.908,1.908,0,0,0-1.1-.312,1.866,1.866,0,0,0-1.08.312,1.952,1.952,0,0,0-.7.888,3.365,3.365,0,0,0-.24,1.344ZM125.063,18a.585.585,0,0,1-.432-.168.639.639,0,0,1-.168-.432V14.352a.575.575,0,0,1,.6-.6h3.048a.555.555,0,0,1,.408.168.548.548,0,0,1,.192.432V17.4a.6.6,0,0,1-.192.432.555.555,0,0,1-.408.168Zm6.807,0a.585.585,0,0,1-.432-.168.639.639,0,0,1-.168-.432V6.12a.575.575,0,0,1,.6-.6H134.7a.575.575,0,0,1,.6.6V17.4a.639.639,0,0,1-.168.432A.585.585,0,0,1,134.7,18Zm-.024-14.28a.575.575,0,0,1-.6-.6V.96a.555.555,0,0,1,.168-.408.548.548,0,0,1,.432-.192h2.88a.523.523,0,0,1,.408.192.523.523,0,0,1,.192.408V3.12a.548.548,0,0,1-.192.432.555.555,0,0,1-.408.168Zm12.062,14.52a8.044,8.044,0,0,1-3.408-.648,4.867,4.867,0,0,1-2.112-1.848,6.361,6.361,0,0,1-.816-2.9q-.024-.48-.024-1.08,0-.624.024-1.08a5.911,5.911,0,0,1,.864-2.9,5.024,5.024,0,0,1,2.136-1.848,7.853,7.853,0,0,1,3.336-.648,7.752,7.752,0,0,1,3.336.648,5,5,0,0,1,2.16,1.848,5.912,5.912,0,0,1,.864,2.9q.024.456.024,1.08,0,.6-.024,1.08a6.182,6.182,0,0,1-.84,2.9,4.694,4.694,0,0,1-2.112,1.848A7.944,7.944,0,0,1,143.908,18.24Zm0-2.928a1.813,1.813,0,0,0,1.56-.648,3.461,3.461,0,0,0,.576-1.944q.024-.36.024-.96t-.024-.96a3.416,3.416,0,0,0-.576-1.92,1.784,1.784,0,0,0-1.56-.672,1.863,1.863,0,0,0-1.56.672,3.3,3.3,0,0,0-.552,1.92q-.024.36-.024.96t.024.96a3.345,3.345,0,0,0,.552,1.944A1.894,1.894,0,0,0,143.908,15.312Z" transform="translate(-0.68 -0.36)" fill="#fff"/></svg>